<svg height="512" viewBox="0 0 64 64" width="512" xmlns="http://www.w3.org/2000/svg"><g id="Fill_Outline" data-name="Fill Outline"><g id="Color"><g><path d="m3 3h58v58h-58z" fill="#93999a"/><path d="m13 3h-10v58h58v-4h-39a9 9 0 0 1 -9-9h48v-12h-37a11 11 0 0 1 -11-11h48v-11h-37a11 11 0 0 1 -11-11z" fill="#656b76"/><path d="m11 28.586v-2.586h-4v2.586a3.415 3.415 0 0 1 -1 2.414 3.415 3.415 0 0 0 -1 2.414v7.586h8v-7.586a3.415 3.415 0 0 0 -1-2.414 3.415 3.415 0 0 1 -1-2.414z" fill="#f89c8d"/><path d="m19 28.586v-2.586h-4v2.586a3.415 3.415 0 0 1 -1 2.414 3.415 3.415 0 0 0 -1 2.414v7.586h8v-7.586a3.415 3.415 0 0 0 -1-2.414 3.415 3.415 0 0 1 -1-2.414z" fill="#f89c8d"/><path d="m5 49h8v12h-8z" fill="#aae1f9"/><path d="m13 49h8v12h-8z" fill="#c4f236"/><path d="m5 53h8v4h-8z" fill="#f89c8d"/><path d="m3 41h58v4h-58z" fill="#f9e109"/><path d="m15 5.586v-2.586h-4v2.586a3.415 3.415 0 0 1 -1 2.414 3.415 3.415 0 0 0 -1 2.414v7.586h8v-7.586a3.415 3.415 0 0 0 -1-2.414 3.415 3.415 0 0 1 -1-2.414z" fill="#aae1f9"/><path d="m23 5.586v-2.586h-4v2.586a3.415 3.415 0 0 1 -1 2.414 3.415 3.415 0 0 0 -1 2.414v7.586h8v-7.586a3.415 3.415 0 0 0 -1-2.414 3.415 3.415 0 0 1 -1-2.414z" fill="#aae1f9"/><path d="m3 18h58v4h-58z" fill="#f9e109"/><path d="m25 31h6v10h-6z" fill="#c4f236"/><path d="m42 33h6v8h-6z" fill="#aae1f9"/><path d="m31 31h6v10h-6z" fill="#c4f236"/><path d="m35 7.764v-4.764h-4v4.764a9.468 9.468 0 0 1 -1 4.236 9.468 9.468 0 0 0 -1 4.236v1.764h8v-1.764a9.468 9.468 0 0 0 -1-4.236 9.468 9.468 0 0 1 -1-4.236z" fill="#c4f236"/><path d="m44 12a9.468 9.468 0 0 1 -1-4.236v-4.764h-4v4.764a9.468 9.468 0 0 1 -1 4.236 9.468 9.468 0 0 0 -1 4.236v1.764h8v-1.764a9.468 9.468 0 0 0 -1-4.236z" fill="#aae1f9"/><path d="m26 53h5v8h-5z" fill="#aae1f9"/><path d="m31 53h5v8h-5z" fill="#f9e109"/><path d="m36 53h5v8h-5z" fill="#c4f236"/><path d="m45 45h16v16h-16z" fill="#aae1f9"/><rect fill="#aae1f9" height="11" rx="2" width="8" x="53" y="30"/><path d="m55 26h4v4h-4z" fill="#c4f236"/><path d="m16.586 16a5.586 5.586 0 0 1 -5.586-5.586 3.415 3.415 0 0 1 1-2.414 3.415 3.415 0 0 0 1-2.414v-2.586h-2v2.586a3.415 3.415 0 0 1 -1 2.414 3.415 3.415 0 0 0 -1 2.414v7.586h8v-2z" fill="#57b7eb"/><path d="m24.586 16a5.586 5.586 0 0 1 -5.586-5.586 3.415 3.415 0 0 1 1-2.414 3.415 3.415 0 0 0 1-2.414v-2.586h-2v2.586a3.415 3.415 0 0 1 -1 2.414 3.415 3.415 0 0 0 -1 2.414v7.586h8v-2z" fill="#57b7eb"/><path d="m31.98 12.039.02-.039a9.468 9.468 0 0 0 1-4.236v-4.764h-2v4.764a9.468 9.468 0 0 1 -1 4.236 9.468 9.468 0 0 0 -1 4.236v1.764h8v-1.764h-2.311a2.956 2.956 0 0 1 -2.709-4.197z" fill="#a1d51c"/><path d="m39.98 12.039.02-.039a9.468 9.468 0 0 0 1-4.236v-4.764h-2v4.764a9.468 9.468 0 0 1 -1 4.236 9.468 9.468 0 0 0 -1 4.236v1.764h8v-1.764h-2.311a2.956 2.956 0 0 1 -2.709-4.197z" fill="#57b7eb"/><path d="m44 12a9.474 9.474 0 0 1 -.986-4h-4.028a9.474 9.474 0 0 1 -.986 4 9.468 9.468 0 0 0 -1 4.236v1.764h8v-1.764a9.468 9.468 0 0 0 -1-4.236z" fill="#c4f236"/><path d="m40 12 .029-.056a9.142 9.142 0 0 0 .958-3.944h-2a9.474 9.474 0 0 1 -.987 4 9.468 9.468 0 0 0 -1 4.236v1.764h8v-1.764h-2.344a2.946 2.946 0 0 1 -2.656-4.236z" fill="#a1d51c"/><path d="m8 18h-5v4h58v-2h-51a2 2 0 0 1 -2-2z" fill="#fcbc04"/><path d="m8 41h-5v4h58v-2h-51a2 2 0 0 1 -2-2z" fill="#fcbc04"/><g><path d="m49 3h12v15h-12z" fill="#aae1f9"/><path d="m49 7h12v6h-12z" fill="#f9e109"/><path d="m51 6v-3h-2v15h12v-2a10 10 0 0 1 -10-10z" fill="#57b7eb"/><path d="m51.05 7h-2.05v6h4.864a9.974 9.974 0 0 1 -2.814-6z" fill="#fcbc04"/></g><path d="m12.586 39a5.586 5.586 0 0 1 -5.586-5.586 3.415 3.415 0 0 1 1-2.414 3.415 3.415 0 0 0 1-2.414v-2.586h-2v2.586a3.415 3.415 0 0 1 -1 2.414 3.415 3.415 0 0 0 -1 2.414v7.586h8v-2z" fill="#f8664f"/><path d="m20.586 39a5.586 5.586 0 0 1 -5.586-5.586 3.415 3.415 0 0 1 1-2.414 3.415 3.415 0 0 0 1-2.414v-2.586h-2v2.586a3.415 3.415 0 0 1 -1 2.414 3.415 3.415 0 0 0 -1 2.414v7.586h8v-2z" fill="#f8664f"/><path d="m33 33v-2h-2v10h6v-2.349a6 6 0 0 1 -4-5.651z" fill="#a1d51c"/><path d="m27 33v-2h-2v10h6v-2.349a6 6 0 0 1 -4-5.651z" fill="#a1d51c"/><path d="m44 33h-2v8h6v-2.349a6 6 0 0 1 -4-5.651z" fill="#57b7eb"/><path d="m55 33v-3a2 2 0 0 0 -2 2v7a2 2 0 0 0 2 2h4a2 2 0 0 0 2-2 6 6 0 0 1 -6-6z" fill="#57b7eb"/><path d="m56 26h-1v4h4v-1a3 3 0 0 1 -3-3z" fill="#a1d51c"/><path d="m60 58a10 10 0 0 1 -10-10h11v-3h-16v16h16v-3z" fill="#57b7eb"/><path d="m49 51h8v4h-8z" fill="#f89c8d"/><path d="m49 55h3.864a10 10 0 0 1 -2.4-4h-1.464z" fill="#f8664f"/><path d="m28 56v-3h-2v8h5v-2a3 3 0 0 1 -3-3z" fill="#57b7eb"/><path d="m33 56v-3h-2v8h5v-2a3 3 0 0 1 -3-3z" fill="#fcbc04"/><path d="m38 56v-3h-2v8h5v-2a3 3 0 0 1 -3-3z" fill="#a1d51c"/><path d="m7 51v-2h-2v12h8v-2.262a8 8 0 0 1 -6-7.738z" fill="#57b7eb"/><path d="m15 51v-2h-2v12h8v-2.262a8 8 0 0 1 -6-7.738z" fill="#a1d51c"/><circle cx="17" cy="55" fill="#aae1f9" r="3"/><path d="m15.174 52.635a2.986 2.986 0 0 0 3.313 4.956 7.982 7.982 0 0 1 -3.313-4.956z" fill="#57b7eb"/><path d="m7.253 53h-2.253v4h4.726a7.98 7.98 0 0 1 -2.473-4z" fill="#f8664f"/></g></g><g id="Outlines_copy" data-name="Outlines copy"><g fill="#323232"><path d="m61 21h-58a1 1 0 0 0 0 2h58a1 1 0 0 0 0-2z"/><path d="m61 2h-12a1 1 0 0 0 -1 1v14h-2v-.764a10.533 10.533 0 0 0 -1.1-4.683 8.522 8.522 0 0 1 -.9-3.789v-4.764a1 1 0 0 0 -1-1h-4a1 1 0 0 0 -1 1v4.764a8.522 8.522 0 0 1 -.9 3.789c-.039.08-.067.165-.1.246-.038-.081-.066-.166-.1-.246a8.522 8.522 0 0 1 -.9-3.789v-4.764a1 1 0 0 0 -1-1h-4a1 1 0 0 0 -1 1v4.764a8.522 8.522 0 0 1 -.895 3.789 10.533 10.533 0 0 0 -1.105 4.683v.764h-10v-6.586a2.394 2.394 0 0 1 .707-1.706 4.385 4.385 0 0 0 1.293-3.122v-1.586h2v1.586a4.385 4.385 0 0 0 1.293 3.122 2.394 2.394 0 0 1 .707 1.706v3.586a1 1 0 0 0 2 0v-3.586a4.385 4.385 0 0 0 -1.293-3.122 2.394 2.394 0 0 1 -.707-1.706v-2.586a1 1 0 0 0 -1-1h-4a1 1 0 0 0 -1 1v2.586a2.394 2.394 0 0 1 -.707 1.706 4.515 4.515 0 0 0 -.293.357 4.515 4.515 0 0 0 -.293-.357 2.394 2.394 0 0 1 -.707-1.706v-2.586a1 1 0 0 0 -1-1h-4a1 1 0 0 0 -1 1v2.586a2.394 2.394 0 0 1 -.707 1.706 4.385 4.385 0 0 0 -1.293 3.122v6.586h-5a1 1 0 0 0 0 2h58a1 1 0 0 0 0-2h-11v-3h10a1 1 0 0 0 2 0v-11a1 1 0 0 0 -1-1zm-19 2v3h-2v-3zm-31.293 4.708a4.385 4.385 0 0 0 1.293-3.122v-1.586h2v1.586a4.385 4.385 0 0 0 1.293 3.122 2.394 2.394 0 0 1 .707 1.706v1.586h-6v-1.586a2.394 2.394 0 0 1 .707-1.706zm-.707 5.292h6v3h-6zm20 2.236a8.522 8.522 0 0 1 .895-3.789 10.533 10.533 0 0 0 1.105-4.683v-3.764h2v3.764a10.533 10.533 0 0 0 1.1 4.683 8.522 8.522 0 0 1 .9 3.789v.764h-6zm8 .764v-.764a8.522 8.522 0 0 1 .9-3.789 10.541 10.541 0 0 0 1.024-3.447h2.152a10.541 10.541 0 0 0 1.029 3.447 8.522 8.522 0 0 1 .9 3.789v.764zm22-13v2h-10v-2zm-10 8v-4h10v4z"/><path d="m61 44h-58a1 1 0 0 0 0 2h57v14h-14v-11a1 1 0 0 0 -2 0v11h-2v-7a1 1 0 0 0 -1-1h-15a1 1 0 0 0 -1 1v7h-3v-11a1 1 0 0 0 -1-1h-16a1 1 0 0 0 -1 1v11h-1a1 1 0 0 0 0 2h58a1 1 0 0 0 1-1v-16a1 1 0 0 0 -1-1zm-21 12h-3v-2h3zm-5 0h-3v-2h3zm-5-2v2h-3v-2zm-10-1.618a3.947 3.947 0 0 0 -6 0v-2.382h6zm-1 2.618a2 2 0 1 1 -2-2 2 2 0 0 1 2 2zm-13-1h6v2h-6zm6-4v2h-6v-2zm-6 8h6v2h-6zm8 2v-2.382a3.947 3.947 0 0 0 6 0v2.382zm13-2h3v2h-3zm5 0h3v2h-3zm5 2v-2h3v2z"/><path d="m57 56a1 1 0 0 0 1-1v-4a1 1 0 0 0 -1-1h-8a1 1 0 0 0 -1 1v4a1 1 0 0 0 1 1zm-7-4h6v2h-6z"/><path d="m60 29.184v-3.184a1 1 0 0 0 -1-1h-4a1 1 0 0 0 -1 1v3.184a3 3 0 0 0 -2 2.816v7a2.966 2.966 0 0 0 .184 1h-3.184v-6a1 1 0 0 0 0-2h-8a1 1 0 0 0 0 2v6h-3v-9a1 1 0 0 0 -1-1h-12a1 1 0 0 0 -1 1v9h-2v-1a1 1 0 0 0 -2 0v1h-6v-6.586a2.394 2.394 0 0 1 .707-1.706 4.385 4.385 0 0 0 1.293-3.122v-1.586h2v1.586a4.385 4.385 0 0 0 1.293 3.122 2.394 2.394 0 0 1 .707 1.706v1.586a1 1 0 0 0 2 0v-1.586a4.385 4.385 0 0 0 -1.293-3.122 2.394 2.394 0 0 1 -.707-1.706v-2.586a1 1 0 0 0 -1-1h-4a1 1 0 0 0 -1 1v2.586a2.394 2.394 0 0 1 -.707 1.706 4.515 4.515 0 0 0 -.293.357 4.515 4.515 0 0 0 -.293-.357 2.394 2.394 0 0 1 -.707-1.706v-2.586a1 1 0 0 0 -1-1h-4a1 1 0 0 0 -1 1v2.586a2.394 2.394 0 0 1 -.707 1.706 4.385 4.385 0 0 0 -1.293 3.122v6.586h-1a1 1 0 0 0 0 2h58a1 1 0 0 0 .7-1.713 2.964 2.964 0 0 0 .3-1.287v-7a3 3 0 0 0 -2-2.816zm-53.293 2.524a4.385 4.385 0 0 0 1.293-3.122v-1.586h2v1.586a4.385 4.385 0 0 0 1.293 3.122 2.394 2.394 0 0 1 .707 1.706v1.586h-6v-1.586a2.394 2.394 0 0 1 .707-1.706zm-.707 5.292h6v3h-6zm50-10h2v2h-2zm-1 4h4a1 1 0 0 1 1 1v3h-6v-3a1 1 0 0 1 1-1zm-19 5h-4v-4h4zm-6-4v2h-4v-2zm-4 4h4v4h-4zm6 4v-2h4v2zm11 0v-6h4v6zm12 0a1 1 0 0 1 -1-1v-2h6v2a1 1 0 0 1 -1 1z"/></g></g></g></svg>